{
	"asset":{
		"version":"2.0",
		"generator":"Created using the official Cinema 4D glTF Exporter. Previous Build: 1.000x279138."
	},
	"scenes":[{
		"nodes":[0,
		1,
		2,
		3,
		4]
	}],
	"nodes":[{
		"name":"dakfuntie",
		"translation":[143.5440216064453,
		3556.3955078125,
		-46.26858139038086],
		"rotation":[0.0,
		0.0,
		0.0,
		-1.0],
		"scale":[1.0,
		1.0,
		-1.0],
		"mesh":0
	},
	{
		"name":"omhulsel",
		"translation":[0.0,
		0.0,
		0.0],
		"rotation":[0.0,
		0.0,
		0.0,
		-1.0],
		"scale":[1.0,
		1.0,
		-1.0],
		"mesh":1
	},
	{
		"name":"binnendak",
		"translation":[0.0,
		0.0,
		0.0],
		"rotation":[0.0,
		0.0,
		0.0,
		-1.0],
		"scale":[1.0,
		1.0,
		-1.0],
		"mesh":2
	},
	{
		"name":"ramen",
		"translation":[0.0,
		1910.0537109375,
		535.4258422851563],
		"rotation":[0.0,
		0.0,
		0.0,
		-1.0],
		"scale":[1.0,
		1.0,
		-1.0],
		"mesh":3
	},
	{
		"name":"balkonnen",
		"translation":[0.0,
		1813.1790771484375,
		571.2685546875],
		"rotation":[0.0,
		0.0,
		0.0,
		-1.0],
		"scale":[1.0,
		1.0,
		-1.0],
		"mesh":4
	}],
	"meshes":[{
		"primitives":[{
			"attributes":{
				"POSITION":1,
				"TEXCOORD_0":2
			},
			"indices":0,
			"material":0
		}]
	},
	{
		"primitives":[{
			"attributes":{
				"POSITION":4,
				"TEXCOORD_0":5
			},
			"indices":3,
			"material":1
		}]
	},
	{
		"primitives":[{
			"attributes":{
				"POSITION":7,
				"TEXCOORD_0":8
			},
			"indices":6,
			"material":2
		}]
	},
	{
		"primitives":[{
			"attributes":{
				"POSITION":10,
				"TEXCOORD_0":11
			},
			"indices":9,
			"material":3
		}]
	},
	{
		"primitives":[{
			"attributes":{
				"POSITION":13,
				"TEXCOORD_0":14
			},
			"indices":12,
			"material":4
		}]
	}],
	"accessors":[{
		"bufferView":0,
		"type":"SCALAR",
		"componentType":5123,
		"count":792,
		"byteOffset":0,
		"min":[0],
		"max":[163]
	},
	{
		"bufferView":1,
		"type":"VEC3",
		"componentType":5126,
		"count":164,
		"byteOffset":0,
		"min":[-3072.859375,
		-123.4377670288086,
		-278.9554138183594],
		"max":[3072.859375,
		123.4377670288086,
		278.9554138183594]
	},
	{
		"bufferView":1,
		"type":"VEC2",
		"componentType":5126,
		"count":164,
		"byteOffset":12,
		"min":[0.00045138210407458246,
		0.04251357167959213],
		"max":[1.2175441980361939,
		0.9682883024215698]
	},
	{
		"bufferView":2,
		"type":"SCALAR",
		"componentType":5123,
		"count":3120,
		"byteOffset":0,
		"min":[0],
		"max":[692]
	},
	{
		"bufferView":3,
		"type":"VEC3",
		"componentType":5126,
		"count":693,
		"byteOffset":0,
		"min":[-3700.0,
		13.179055213928223,
		-553.7314453125],
		"max":[3700.0,
		3613.178955078125,
		646.2685546875]
	},
	{
		"bufferView":3,
		"type":"VEC2",
		"componentType":5126,
		"count":693,
		"byteOffset":12,
		"min":[0.11780018359422684,
		0.25765156745910647],
		"max":[1.1238778829574586,
		0.7234094142913818]
	},
	{
		"bufferView":4,
		"type":"SCALAR",
		"componentType":5123,
		"count":30,
		"byteOffset":0,
		"min":[0],
		"max":[9]
	},
	{
		"bufferView":5,
		"type":"VEC3",
		"componentType":5126,
		"count":10,
		"byteOffset":0,
		"min":[-3640.2578125,
		3577.1162109375,
		-492.9128112792969],
		"max":[3640.2578125,
		3613.178955078125,
		585.449951171875]
	},
	{
		"bufferView":5,
		"type":"VEC2",
		"componentType":5126,
		"count":10,
		"byteOffset":12,
		"min":[0.125,
		0.30408668518066409],
		"max":[1.125,
		0.6959131956100464]
	},
	{
		"bufferView":6,
		"type":"SCALAR",
		"componentType":5123,
		"count":4950,
		"byteOffset":0,
		"min":[0],
		"max":[1660]
	},
	{
		"bufferView":7,
		"type":"VEC3",
		"componentType":5126,
		"count":1661,
		"byteOffset":0,
		"min":[-3522.6025390625,
		-1619.7313232421875,
		-18.30554962158203],
		"max":[3522.6025390625,
		1619.7313232421875,
		18.30554962158203]
	},
	{
		"bufferView":7,
		"type":"VEC2",
		"componentType":5126,
		"count":1661,
		"byteOffset":12,
		"min":[0.125,
		0.25011539459228518],
		"max":[1.2560604810714722,
		0.7498846054077148]
	},
	{
		"bufferView":8,
		"type":"SCALAR",
		"componentType":5123,
		"count":1188,
		"byteOffset":0,
		"min":[0],
		"max":[329]
	},
	{
		"bufferView":9,
		"type":"VEC3",
		"componentType":5126,
		"count":330,
		"byteOffset":0,
		"min":[-3080.19580078125,
		-1563.891845703125,
		-75.0],
		"max":[3080.19580078125,
		1563.891845703125,
		75.0]
	},
	{
		"bufferView":9,
		"type":"VEC2",
		"componentType":5126,
		"count":330,
		"byteOffset":12,
		"min":[0.125,
		0.25346678495407107],
		"max":[1.2168998718261719,
		0.7465331554412842]
	}],
	"bufferViews":[{
		"buffer":0,
		"byteOffset":0,
		"byteLength":1584,
		"target":34963
	},
	{
		"buffer":0,
		"byteOffset":1584,
		"byteLength":3280,
		"target":34962,
		"byteStride":20
	},
	{
		"buffer":1,
		"byteOffset":0,
		"byteLength":6240,
		"target":34963
	},
	{
		"buffer":1,
		"byteOffset":6240,
		"byteLength":13860,
		"target":34962,
		"byteStride":20
	},
	{
		"buffer":2,
		"byteOffset":0,
		"byteLength":60,
		"target":34963
	},
	{
		"buffer":2,
		"byteOffset":60,
		"byteLength":200,
		"target":34962,
		"byteStride":20
	},
	{
		"buffer":3,
		"byteOffset":0,
		"byteLength":9900,
		"target":34963
	},
	{
		"buffer":3,
		"byteOffset":9900,
		"byteLength":33220,
		"target":34962,
		"byteStride":20
	},
	{
		"buffer":4,
		"byteOffset":0,
		"byteLength":2376,
		"target":34963
	},
	{
		"buffer":4,
		"byteOffset":2376,
		"byteLength":6600,
		"target":34962,
		"byteStride":20
	}],
	"buffers":[{
		"uri":"data:application/octet-stream;base64,",
		"byteLength":4864
	},
	{
		"uri":"data:application/octet-stream;base64,",
		"byteLength":20100
	},
	{
		"uri":"data:application/octet-stream;base64,",
		"byteLength":260
	},
	{
		"uri":"data:application/octet-stream;base64,",
		"byteLength":43120
	},
	{
		"uri":"data:application/octet-stream;base64,",
		"byteLength":8976
	}],
	"materials":[{
		"pbrMetallicRoughness":{
			"baseColorFactor":[0.12941176470588235,
			0.12941176470588235,
			0.12941176470588235,
			1.0],
			"metallicFactor":1.0,
			"roughnessFactor":0.49
		},
		"emissiveFactor":[0.0,
		0.0,
		0.0],
		"alphaMode":"OPAQUE",
		"doubleSided":false
	},
	{
		"pbrMetallicRoughness":{
			"baseColorFactor":[0.6705882352941176,
			0.30196078431372549,
			0.21568627450980394,
			1.0],
			"metallicFactor":1.0,
			"roughnessFactor":0.72
		},
		"emissiveFactor":[0.0,
		0.0,
		0.0],
		"alphaMode":"OPAQUE",
		"doubleSided":false
	},
	{
		"pbrMetallicRoughness":{
			"baseColorFactor":[0.12941176470588235,
			0.12941176470588235,
			0.12941176470588235,
			1.0],
			"metallicFactor":1.0,
			"roughnessFactor":0.49
		},
		"emissiveFactor":[0.0,
		0.0,
		0.0],
		"alphaMode":"OPAQUE",
		"doubleSided":false
	},
	{
		"pbrMetallicRoughness":{
			"baseColorFactor":[0.664,
			0.722285714285714,
			0.8,
			1.0],
			"metallicFactor":1.0,
			"roughnessFactor":0.1
		},
		"emissiveFactor":[0.0,
		0.0,
		0.0],
		"alphaMode":"OPAQUE",
		"doubleSided":false
	},
	{
		"pbrMetallicRoughness":{
			"baseColorFactor":[0.7803921568627451,
			0.5686274509803921,
			0.2274509803921568,
			1.0],
			"metallicFactor":1.0,
			"roughnessFactor":0.71
		},
		"emissiveFactor":[0.0,
		0.0,
		0.0],
		"alphaMode":"OPAQUE",
		"doubleSided":false
	}]
}