{
	"asset":{
		"version":"2.0",
		"generator":"Created using the official Cinema 4D glTF Exporter. Previous Build: 1.000x279138."
	},
	"scenes":[{
		"nodes":[0]
	}],
	"nodes":[{
		"name":"Platonic",
		"mesh":0,
		"translation":[0.0,
		0.0,
		0.0],
		"rotation":[0.0,
		0.0,
		0.0,
		-1.0],
		"scale":[1.0,
		1.0,
		-1.0]
	}],
	"meshes":[{
		"primitives":[{
			"attributes":{
				"POSITION":1,
				"NORMAL":2,
				"TEXCOORD_0":3
			},
			"indices":0,
			"material":0
		}]
	}],
	"accessors":[{
		"bufferView":0,
		"type":"SCALAR",
		"componentType":5123,
		"count":60,
		"byteOffset":0,
		"min":[0],
		"max":[59]
	},
	{
		"bufferView":1,
		"type":"VEC3",
		"componentType":5126,
		"count":60,
		"byteOffset":0,
		"min":[-85.06521606445313,
		-85.06521606445313,
		-85.06521606445313],
		"max":[85.06521606445313,
		85.06521606445313,
		85.06521606445313]
	},
	{
		"bufferView":1,
		"type":"VEC3",
		"componentType":5126,
		"count":60,
		"byteOffset":12,
		"min":[-0.9341723322868347,
		-0.9341723322868347,
		-0.9341723322868347],
		"max":[0.9341723322868347,
		0.9341723322868347,
		0.9341723322868347]
	},
	{
		"bufferView":1,
		"type":"VEC2",
		"componentType":5126,
		"count":60,
		"byteOffset":24,
		"min":[0.0,
		0.0],
		"max":[1.0,
		0.8659999370574951]
	}],
	"bufferViews":[{
		"buffer":0,
		"byteOffset":0,
		"byteLength":120,
		"target":34963
	},
	{
		"buffer":0,
		"byteOffset":120,
		"byteLength":1920,
		"target":34962,
		"byteStride":32
	}],
	"buffers":[{
		"uri":"data:application/octet-stream;base64,",
		"byteLength":2040
	}],
	"materials":[{
		"pbrMetallicRoughness":{
			"baseColorFactor":[1.0,
			1.0,
			1.0,
			1.0],
			"metallicFactor":1.0,
			"roughnessFactor":1.0
		},
		"emissiveFactor":[0.0,
		0.0,
		0.0],
		"alphaMode":"OPAQUE",
		"doubleSided":false
	}]
}