{
    "asset" : {
        "generator" : "Khronos glTF Blender I/O v0.9.36",
        "version" : "2.0"
    },
    "scene" : 0,
    "scenes" : [
        {
            "name" : "Scene",
            "nodes" : [
                0
            ]
        }
    ],
    "nodes" : [
        {
            "mesh" : 0,
            "name" : "Philips Pailion"
        }
    ],
    "materials" : [
        {
            "doubleSided" : true,
            "name" : "Philips Pavilion",
            "normalTexture" : {
                "index" : 0,
                "texCoord" : 0
            },
            "pbrMetallicRoughness" : {
                "baseColorTexture" : {
                    "index" : 1,
                    "texCoord" : 0
                },
                "metallicFactor" : 0,
                "metallicRoughnessTexture" : {
                    "index" : 2,
                    "texCoord" : 0
                }
            }
        }
    ],
    "meshes" : [
        {
            "name" : "Awning_Braces",
            "primitives" : [
                {
                    "attributes" : {
                        "POSITION" : 0,
                        "NORMAL" : 1,
                        "TEXCOORD_0" : 2
                    },
                    "indices" : 3,
                    "material" : 0
                }
            ]
        }
    ],
    "textures" : [
        {
            "source" : 0
        },
        {
            "source" : 1
        },
        {
            "source" : 2
        }
    ],
    "images" : [
        {
            "bufferView" : 4,
            "mimeType" : "image/jpeg",
            "name" : "Philips Normal"
        },
        {
            "bufferView" : 5,
            "mimeType" : "image/jpeg",
            "name" : "Philips Diffuse"
        },
        {
            "bufferView" : 6,
            "mimeType" : "image/jpeg",
            "name" : "Philips Roughness"
        }
    ],
    "accessors" : [
        {
            "bufferView" : 0,
            "componentType" : 5126,
            "count" : 7430,
            "max" : [
                31.280553817749023,
                22.3862361907959,
                31.280553817749023
            ],
            "min" : [
                -31.28055191040039,
                0.00815688818693161,
                -31.28055191040039
            ],
            "type" : "VEC3"
        },
        {
            "bufferView" : 1,
            "componentType" : 5126,
            "count" : 7430,
            "type" : "VEC3"
        },
        {
            "bufferView" : 2,
            "componentType" : 5126,
            "count" : 7430,
            "type" : "VEC2"
        },
        {
            "bufferView" : 3,
            "componentType" : 5123,
            "count" : 27678,
            "type" : "SCALAR"
        }
    ],
    "bufferViews" : [
        {
            "buffer" : 0,
            "byteLength" : 89160,
            "byteOffset" : 0
        },
        {
            "buffer" : 0,
            "byteLength" : 89160,
            "byteOffset" : 89160
        },
        {
            "buffer" : 0,
            "byteLength" : 59440,
            "byteOffset" : 178320
        },
        {
            "buffer" : 0,
            "byteLength" : 55356,
            "byteOffset" : 237760
        },
        {
            "buffer" : 0,
            "byteLength" : 444317,
            "byteOffset" : 293116
        },
        {
            "buffer" : 0,
            "byteLength" : 329498,
            "byteOffset" : 737436
        },
        {
            "buffer" : 0,
            "byteLength" : 439694,
            "byteOffset" : 1066936
        }
    ],
    "buffers" : [
        {
            "byteLength" : 1506632,
            "uri" : "data:application/octet-stream;base64,"
        }
    ]
}
