{
  "accessors": [
    {
      "bufferView": 2,
      "componentType": 5126,
      "count": 2577,
      "max": [
        1934.9998779296875,
        1025,
        1301.4437255859375
      ],
      "min": [
        -1934.9998779296875,
        -1025,
        -1296.333740234375
      ],
      "type": "VEC3"
    },
    {
      "bufferView": 2,
      "byteOffset": 30924,
      "componentType": 5126,
      "count": 2577,
      "max": [
        0.99947971105575562,
        0.99437880516052246,
        0.99999099969863892
      ],
      "min": [
        -0.80637055635452271,
        -0.87525260448455811,
        -0.99943828582763672
      ],
      "type": "VEC3"
    },
    {
      "bufferView": 3,
      "componentType": 5126,
      "count": 2577,
      "max": [
        0.96882891654968262,
        0.98059141635894775,
        0.80386894941329956,
        1
      ],
      "min": [
        -0.99684399366378784,
        -0.72786694765090942,
        -0.998729407787323,
        -1
      ],
      "type": "VEC4"
    },
    {
      "bufferView": 1,
      "componentType": 5126,
      "count": 2577,
      "max": [
        0.97802734375,
        0.98117780685424805
      ],
      "min": [
        0.0081775188446044922,
        0.023223876953125
      ],
      "type": "VEC2"
    },
    {
      "bufferView": 1,
      "byteOffset": 20616,
      "componentType": 5126,
      "count": 2577,
      "max": [
        0.97802734375,
        0.98117780685424805
      ],
      "min": [
        0.0081775188446044922,
        0.023223876953125
      ],
      "type": "VEC2"
    },
    {
      "bufferView": 0,
      "componentType": 5125,
      "count": 11184,
      "max": [
        2576
      ],
      "min": [
        0
      ],
      "type": "SCALAR"
    },
    {
      "bufferView": 2,
      "byteOffset": 61848,
      "componentType": 5126,
      "count": 28533,
      "max": [
        1952.563232421875,
        1044.858642578125,
        1318.50732421875
      ],
      "min": [
        -1952.563232421875,
        -1044.858642578125,
        -1318.50732421875
      ],
      "type": "VEC3"
    },
    {
      "bufferView": 2,
      "byteOffset": 404244,
      "componentType": 5126,
      "count": 28533,
      "max": [
        0.99973464012145996,
        0.9999997615814209,
        0.99999010562896729
      ],
      "min": [
        -0.99959242343902588,
        -0.9999997615814209,
        -0.99998915195465088
      ],
      "type": "VEC3"
    },
    {
      "bufferView": 3,
      "byteOffset": 41232,
      "componentType": 5126,
      "count": 28533,
      "max": [
        0.99982547760009766,
        0.99999910593032837,
        0.99997323751449585,
        1
      ],
      "min": [
        -0.99982458353042603,
        -0.99999916553497314,
        -0.99997323751449585,
        -1
      ],
      "type": "VEC4"
    },
    {
      "bufferView": 1,
      "byteOffset": 41232,
      "componentType": 5126,
      "count": 28533,
      "max": [
        1,
        1
      ],
      "min": [
        0,
        0
      ],
      "type": "VEC2"
    },
    {
      "bufferView": 0,
      "byteOffset": 44736,
      "componentType": 5125,
      "count": 161112,
      "max": [
        28532
      ],
      "min": [
        0
      ],
      "type": "SCALAR"
    },
    {
      "bufferView": 2,
      "byteOffset": 746640,
      "componentType": 5126,
      "count": 4,
      "max": [
        2918.5,
        0,
        2054
      ],
      "min": [
        -2918.5,
        0,
        -2054
      ],
      "type": "VEC3"
    },
    {
      "bufferView": 2,
      "byteOffset": 746688,
      "componentType": 5126,
      "count": 4,
      "max": [
        0,
        1,
        -0
      ],
      "min": [
        0,
        1,
        -0
      ],
      "type": "VEC3"
    },
    {
      "bufferView": 3,
      "byteOffset": 497760,
      "componentType": 5126,
      "count": 4,
      "max": [
        1,
        0,
        0,
        1
      ],
      "min": [
        1,
        0,
        0,
        1
      ],
      "type": "VEC4"
    },
    {
      "bufferView": 1,
      "byteOffset": 269496,
      "componentType": 5126,
      "count": 4,
      "max": [
        1,
        1
      ],
      "min": [
        0,
        0
      ],
      "type": "VEC2"
    },
    {
      "bufferView": 0,
      "byteOffset": 689184,
      "componentType": 5125,
      "count": 6,
      "max": [
        3
      ],
      "min": [
        0
      ],
      "type": "SCALAR"
    }
  ],
  "asset": {
    "extras": {
      "author": "Jelle Vermandere (https://sketchfab.com/jellevermandere)",
      "license": "CC-BY-4.0 (http://creativecommons.org/licenses/by/4.0/)",
      "source": "https://sketchfab.com/3d-models/philips-pavilioen-8dd95668e42c4d3396fddd8a0c8489a9",
      "title": "Philips Pavilioen"
    },
    "generator": "Sketchfab-5.35.0",
    "version": "2.0"
  },
  "bufferViews": [
    {
      "buffer": 0,
      "byteLength": 689208,
      "byteOffset": 0,
      "name": "floatBufferViews",
      "target": 34963
    },
    {
      "buffer": 0,
      "byteLength": 269528,
      "byteOffset": 689208,
      "byteStride": 8,
      "name": "floatBufferViews",
      "target": 34962
    },
    {
      "buffer": 0,
      "byteLength": 746736,
      "byteOffset": 958736,
      "byteStride": 12,
      "name": "floatBufferViews",
      "target": 34962
    },
    {
      "buffer": 0,
      "byteLength": 497824,
      "byteOffset": 1705472,
      "byteStride": 16,
      "name": "floatBufferViews",
      "target": 34962
    }
  ],
  "buffers": [
    {
      "byteLength": 2203296,
      "uri": "scene.bin"
    }
  ],
  "images": [
    {
      "uri": "textures/stangen_baseColor.jpeg"
    },
    {
      "uri": "textures/Schil_Texture_baseColor.jpeg"
    },
    {
      "uri": "textures/Plattegrond_baseColor.png"
    }
  ],
  "materials": [
    {
      "doubleSided": true,
      "name": "Schil_Texture",
      "pbrMetallicRoughness": {
        "baseColorFactor": [
          1,
          1,
          1,
          1
        ],
        "baseColorTexture": {
          "index": 1,
          "texCoord": 0
        },
        "metallicFactor": 0,
        "roughnessFactor": 0.90486343079999998
      }
    },
    {
      "doubleSided": true,
      "name": "stangen",
      "pbrMetallicRoughness": {
        "baseColorFactor": [
          1,
          1,
          1,
          1
        ],
        "baseColorTexture": {
          "index": 0,
          "texCoord": 0
        },
        "metallicFactor": 0.12976371950000001,
        "roughnessFactor": 0.90486343079999998
      }
    },
    {
      "alphaMode": "BLEND",
      "doubleSided": true,
      "name": "Plattegrond",
      "pbrMetallicRoughness": {
        "baseColorFactor": [
          0,
          0,
          0,
          1
        ],
        "baseColorTexture": {
          "index": 2,
          "texCoord": 0
        },
        "metallicFactor": 0,
        "roughnessFactor": 1
      }
    }
  ],
  "meshes": [
    {
      "name": "Schil_Def_Schil Texture_0",
      "primitives": [
        {
          "attributes": {
            "NORMAL": 1,
            "POSITION": 0,
            "TANGENT": 2,
            "TEXCOORD_0": 3,
            "TEXCOORD_1": 4
          },
          "indices": 5,
          "material": 0,
          "mode": 4
        }
      ]
    },
    {
      "name": "Sweep_1_stangen_0",
      "primitives": [
        {
          "attributes": {
            "NORMAL": 7,
            "POSITION": 6,
            "TANGENT": 8,
            "TEXCOORD_0": 9
          },
          "indices": 10,
          "material": 1,
          "mode": 4
        }
      ]
    },
    {
      "name": "Plattegrond_Plattegrond_0",
      "primitives": [
        {
          "attributes": {
            "NORMAL": 12,
            "POSITION": 11,
            "TANGENT": 13,
            "TEXCOORD_0": 14
          },
          "indices": 15,
          "material": 2,
          "mode": 4
        }
      ]
    }
  ],
  "nodes": [
    {
      "children": [
        1
      ],
      "name": "RootNode (gltf orientation matrix)",
      "rotation": [
        -0.70710678118654746,
        -0,
        -0,
        0.70710678118654757
      ]
    },
    {
      "children": [
        2
      ],
      "name": "RootNode (model correction matrix)"
    },
    {
      "children": [
        3
      ],
      "matrix": [
        1,
        0,
        0,
        0,
        0,
        0,
        1,
        0,
        0,
        -1,
        0,
        0,
        0,
        0,
        0,
        1
      ],
      "name": "890b541f9bc74211b40f836488a931b6.fbx"
    },
    {
      "children": [
        4,
        6,
        8
      ],
      "name": "RootNode"
    },
    {
      "children": [
        5
      ],
      "matrix": [
        1,
        0,
        0,
        0,
        0,
        1,
        0,
        0,
        0,
        0,
        1,
        0,
        415.00018310546875,
        1025,
        448.55630493164062,
        1
      ],
      "name": "Schil_Def"
    },
    {
      "mesh": 0,
      "name": "Schil_Def_Schil Texture_0"
    },
    {
      "children": [
        7
      ],
      "matrix": [
        1,
        0,
        0,
        0,
        0,
        1,
        0,
        0,
        0,
        0,
        1,
        0,
        412.84335327148438,
        1024.847412109375,
        450.74014282226562,
        1
      ],
      "name": "Sweep_1"
    },
    {
      "mesh": 1,
      "name": "Sweep_1_stangen_0"
    },
    {
      "children": [
        9
      ],
      "matrix": [
        1,
        0,
        0,
        0,
        0,
        1,
        0,
        0,
        0,
        0,
        1,
        0,
        460.61358642578125,
        0,
        84.985015869140625,
        1
      ],
      "name": "Plattegrond"
    },
    {
      "mesh": 2,
      "name": "Plattegrond_Plattegrond_0"
    }
  ],
  "samplers": [
    {
      "magFilter": 9729,
      "minFilter": 9987,
      "wrapS": 10497,
      "wrapT": 10497
    }
  ],
  "scene": 0,
  "scenes": [
    {
      "name": "OSG_Scene",
      "nodes": [
        0
      ]
    }
  ],
  "textures": [
    {
      "sampler": 0,
      "source": 0
    },
    {
      "sampler": 0,
      "source": 1
    },
    {
      "sampler": 0,
      "source": 2
    }
  ]
}

